<?xml version="1.0" encoding="utf-8"?>
<!-- Generator: Adobe Illustrator 22.0.0, SVG Export Plug-In . SVG Version: 6.00 Build 0)  -->
<svg version="1.1" id="圖層_1" xmlns="http://www.w3.org/2000/svg" xmlns:xlink="http://www.w3.org/1999/xlink" x="0px" y="0px"
	 viewBox="0 0 100 100" style="enable-background:new 0 0 100 100;" xml:space="preserve">
<style type="text/css">
	.st0{fill:none;stroke:#C50A04;stroke-miterlimit:10;stroke-dasharray:11.8383,11.8383;}
	.st1{fill:#C50A04;}
	.st2{fill:#FFFFFF;}
</style>
<g>
	<circle class="st0" cx="50" cy="50" r="49">
	
		<animateTransform  accumulate="none" additive="replace" attributeName="transform" attributeType="XML" calcMode="linear" dur="10s" fill="remove" from="0 50 50" repeatCount="indefinite" restart="always" to="360 50 50" type="rotate">
		</animateTransform>
	</circle>
</g>
<circle class="st1" cx="50" cy="50" r="38.2"/>
<g>
	<path class="st2" d="M50,28.3c-7.7,0-13.8,6.1-13.8,13.8C36.1,55.4,50,71.7,50,71.7s13.9-16.4,13.8-29.5
		C63.8,34.5,57.6,28.3,50,28.3L50,28.3z M50,47.9c-3.2,0-5.9-2.6-5.9-5.9s2.6-5.9,5.9-5.9c3.3,0,5.9,2.6,5.9,5.9l0,0
		C55.8,45.3,53.2,47.9,50,47.9L50,47.9z"/>
</g>
</svg>
