<?xml version="1.0" encoding="utf-8"?>

<svg version="1.1" id="圖層_1" xmlns="http://www.w3.org/2000/svg" xmlns:xlink="http://www.w3.org/1999/xlink" x="0px" y="0px"
	 viewBox="0 0 100 100" style="enable-background:new 0 0 100 100;" xml:space="preserve">
<style type="text/css">
	.st0{fill:none;stroke:#C50A04;stroke-miterlimit:10;stroke-dasharray:11.8383,11.8383;}
	.st1{fill:#C50A04;}
	.st2{fill:#FFFFFF;}
</style>
<g>
	<circle class="st0" cx="50" cy="50" r="49">
	
		<animateTransform  accumulate="none" additive="replace" attributeName="transform" attributeType="XML" calcMode="linear" dur="10s" fill="remove" from="0 50 50" repeatCount="indefinite" restart="always" to="360 50 50" type="rotate">
		</animateTransform>
	</circle>
</g>
<circle class="st1" cx="50" cy="50" r="38.2"/>
<g>
	<g>
		<path class="st2" d="M64,36.5H34.8c-1.7,0-3.1,1.4-3.1,3.1v20.7c0,1.7,1.4,3.1,3.1,3.1H64c1.7,0,3.1-1.4,3.1-3.1V39.6
			C67.1,37.9,65.7,36.5,64,36.5z M63.5,38.6L49.4,52.7L35.2,38.6L63.5,38.6L63.5,38.6z M33.8,59.9V40l10,9.9L33.8,59.9z M35.2,61.4
			l10-10l3.5,3.5c0.4,0.4,1,0.4,1.5,0l3.4-3.4l9.9,9.9H35.2z M65,59.9L55,50L65,40V59.9z"/>
	</g>
</g>
</svg>
