<?xml version="1.0" encoding="utf-8"?>

<svg version="1.1" id="圖層_1" xmlns="http://www.w3.org/2000/svg" xmlns:xlink="http://www.w3.org/1999/xlink" x="0px" y="0px"
	 viewBox="0 0 100 100" style="enable-background:new 0 0 100 100;" xml:space="preserve">
<style type="text/css">
	.st0{fill:none;stroke:#C50A04;stroke-miterlimit:10;stroke-dasharray:11.8383,11.8383;}
	.st1{fill:#C50A04;}
	.st2{fill:#FFFFFF;}
</style>
<g>
	<circle class="st0" cx="50" cy="50" r="49">
        <animateTransform attributeName="transform"
		    attributeType="XML"
		    type="rotate"
		    from="0 50 50"
		    to="360 50 50"
		    dur="10s"
		    repeatCount="indefinite" />



	</circle>
</g>
<circle class="st1" cx="50" cy="50" r="38.2"/>
<g>
	<path class="st2" d="M71.6,61.9c-0.1-0.4-0.9-0.9-2.3-1.6c-0.4-0.2-0.9-0.5-1.7-0.9c-0.7-0.4-1.4-0.7-2-1.1c-0.6-0.3-1.1-0.6-1.6-1
		c-0.1-0.1-0.3-0.2-0.8-0.5c-0.4-0.3-0.8-0.5-1.1-0.7c-0.3-0.1-0.6-0.2-0.9-0.2c-0.4,0-0.9,0.3-1.5,0.9c-0.6,0.6-1.2,1.2-1.7,1.9
		c-0.5,0.7-1.1,1.3-1.6,1.9c-0.6,0.6-1,0.9-1.4,0.9c-0.2,0-0.4-0.1-0.7-0.2c-0.3-0.1-0.5-0.2-0.6-0.3c-0.1-0.1-0.4-0.2-0.7-0.4
		c-0.3-0.2-0.5-0.3-0.6-0.4c-2.8-1.6-5.2-3.3-7.2-5.4c-2-2-3.8-4.4-5.4-7.2c0,0-0.1-0.2-0.4-0.6c-0.2-0.3-0.4-0.6-0.4-0.7
		c-0.1-0.1-0.2-0.4-0.3-0.6c-0.1-0.3-0.2-0.5-0.2-0.7c0-0.4,0.3-0.8,0.9-1.4c0.6-0.6,1.2-1.1,1.9-1.6c0.7-0.5,1.3-1.1,1.9-1.7
		c0.6-0.6,0.9-1.1,0.9-1.5c0-0.3-0.1-0.6-0.2-0.9c-0.1-0.3-0.4-0.7-0.7-1.1c-0.3-0.4-0.5-0.7-0.5-0.8c-0.3-0.5-0.6-1.1-1-1.6
		c-0.3-0.6-0.7-1.2-1.1-2c-0.4-0.7-0.7-1.3-0.9-1.7c-0.7-1.4-1.3-2.2-1.6-2.3c-0.1-0.1-0.4-0.1-0.6-0.1c-0.6,0-1.3,0.1-2.2,0.3
		c-0.9,0.2-1.6,0.4-2.1,0.6c-1,0.4-2.1,1.7-3.3,3.8c-1,1.9-1.6,3.8-1.6,5.7c0,0.6,0,1.1,0.1,1.6c0.1,0.5,0.2,1.1,0.4,1.8
		c0.2,0.7,0.3,1.1,0.4,1.5c0.1,0.3,0.3,0.9,0.6,1.7c0.3,0.8,0.5,1.3,0.6,1.5c0.7,2,1.6,3.8,2.6,5.4c1.6,2.6,3.8,5.3,6.6,8.1
		c2.8,2.8,5.5,5,8.1,6.6c1.6,1,3.4,1.8,5.4,2.6c0.2,0.1,0.7,0.2,1.5,0.6c0.8,0.3,1.4,0.5,1.7,0.6c0.3,0.1,0.8,0.3,1.5,0.4
		c0.7,0.2,1.2,0.3,1.8,0.4c0.5,0.1,1.1,0.1,1.6,0.1c1.9,0,3.8-0.5,5.7-1.6c2.1-1.1,3.3-2.2,3.8-3.3c0.2-0.5,0.4-1.2,0.6-2.1
		c0.2-0.9,0.3-1.6,0.3-2.2C71.7,62.3,71.6,62.1,71.6,61.9z"/>
</g>
<g>
	<path class="st2" d="M-123.3-66.7c-6.5,0-11.7,5.2-11.7,11.7c-0.1,11.2,11.7,25,11.7,25s11.8-13.9,11.7-25
		C-111.6-61.5-116.9-66.7-123.3-66.7L-123.3-66.7z M-123.3-50.1c-2.7,0-5-2.2-5-5s2.2-5,5-5s5,2.2,5,5c0,0,0,0,0,0
		C-118.4-52.3-120.6-50.1-123.3-50.1C-123.3-50.1-123.3-50.1-123.3-50.1z"/>
</g>
<g>
	<g>
		<path class="st2" d="M380.2,28.5h-139c-8.2,0-14.8,6.7-14.8,14.8v98.8c0,8.1,6.6,14.8,14.8,14.8h139c8.1,0,14.8-6.6,14.8-14.8
			V43.3C395,35.2,388.4,28.5,380.2,28.5z M378.1,38.4L311,105.6l-67.7-67.1H378.1z M236.2,140.1V45.3l47.6,47.2L236.2,140.1z
			 M243.2,147.1l47.6-47.6l16.7,16.5c1.9,1.9,5,1.9,7,0l16.3-16.3l47.4,47.4H243.2z M385.1,140.1l-47.4-47.4l47.4-47.4V140.1z"/>
	</g>
</g>
</svg>
